<?xml version="1.0" encoding="UTF-8"?>
<svg id="Layer_2" data-name="Layer 2" xmlns="http://www.w3.org/2000/svg" width="50.8" height="76.01" xmlns:xlink="http://www.w3.org/1999/xlink" viewBox="0 0 50.8 76.01">
  <defs>
    <linearGradient id="linear-gradient" x1="0" y1="38.01" x2="50.8" y2="38.01" gradientUnits="userSpaceOnUse">
      <stop offset="0" stop-color="#1d71b8"/>
      <stop offset="1" stop-color="#4ec2ec"/>
    </linearGradient>
  </defs>
  <g id="Layer_1-2" data-name="Layer 1">
    <path d="m27.48,0c1.52.29,3.08.46,4.56.9,9.49,2.8,15.45,9.07,17.99,18.6.58,2.18.79,4.38.77,6.65-.07,7.92-.02,15.84-.03,23.75,0,3.41-.49,6.73-1.75,9.93-1.97,5.01-5.19,9.02-9.67,11.98-5,3.3-10.52,4.67-16.49,4.07-6.05-.61-11.23-3.13-15.5-7.44-3.51-3.54-5.8-7.79-6.76-12.7-.36-1.83-.53-3.73-.54-5.59-.06-8.41-.1-16.83,0-25.24.06-5.24,1.68-10.05,4.75-14.32C8.83,5.02,14.25,1.63,21,.36,21.77.22,22.55.12,23.33,0c1.39,0,2.77,0,4.16,0Zm-5.24,58.55h6.26v-4.68h-6.25v-6.37h6.29c0-1.21-.03-2.35.01-3.48.02-.58-.15-.87-.69-1.1-6.91-3.04-13.8-6.12-20.7-9.18-.23-.1-.47-.18-.75-.29,0,5.89-.04,11.68.02,17.47.03,3.24.83,6.31,2.48,9.12,3.11,5.28,7.7,8.43,13.75,9.41,1.94.31,3.88.31,5.84-.09v-4.41h-6.25v-6.39Zm17.41-27.8c1.6-1.27,3.09-2.45,4.55-3.64.14-.11.19-.39.19-.59.12-5.42-1.42-10.26-5.25-14.19-5.15-5.3-11.44-7.14-18.56-5.3-8.64,2.23-14.22,9.78-14.18,18.72,0,.26.07.68.24.76,1.46.7,2.95,1.34,4.66,2.09,0-1.86-.17-3.58.03-5.26,1.03-8.73,10.35-14.41,18.64-11.52,5.71,1.99,9.82,7.46,9.7,13.76-.03,1.67,0,3.34,0,5.17Zm-6.37-.7c0-1.53,0-3.07,0-4.6,0-2.56-.98-4.66-2.98-6.25-2.5-1.99-5.29-2.33-8.14-1.03-2.9,1.32-4.51,3.69-4.63,6.94-.07,1.85,0,3.71-.03,5.57,0,.52.16.77.64.98,3.82,1.67,7.66,3.3,11.42,5.1,1.28.61,2.17.61,3.15-.42.37-.39.59-.69.58-1.24-.04-1.68-.01-3.36-.01-5.05Zm11.09,5.11c-.24.18-.4.29-.55.41-2.8,2.24-5.59,4.49-8.41,6.71-.39.31-.54.62-.53,1.11.02,7.64.01,15.29.01,22.93,0,.21.02.42.04.7.31-.18.54-.31.76-.46,5.39-3.66,8.41-8.73,8.63-15.25.19-5.34.04-10.68.04-16.17Z" style="fill: url(#linear-gradient);"/>
  </g>
</svg>