<?xml version="1.0" encoding="UTF-8"?>
<svg id="Layer_2" data-name="Layer 2" xmlns="http://www.w3.org/2000/svg" width="210.62" height="76.01" xmlns:xlink="http://www.w3.org/1999/xlink" viewBox="0 0 210.62 76.01">
  <defs>
    <linearGradient id="linear-gradient" x1="0" y1="38.01" x2="50.8" y2="38.01" gradientUnits="userSpaceOnUse">
      <stop offset="0" stop-color="#1d71b8"/>
      <stop offset="1" stop-color="#4ec2ec"/>
    </linearGradient>
    <linearGradient id="linear-gradient-2" x1="58.04" y1="29.77" x2="84.7" y2="29.77" xlink:href="#linear-gradient"/>
    <linearGradient id="linear-gradient-3" x1="89.58" y1="27.3" x2="99.25" y2="27.3" xlink:href="#linear-gradient"/>
    <linearGradient id="linear-gradient-4" x1="104.13" y1="38.58" x2="130.79" y2="38.58" xlink:href="#linear-gradient"/>
    <linearGradient id="linear-gradient-5" x1="137.21" y1="33.12" x2="163.58" y2="33.12" xlink:href="#linear-gradient"/>
    <linearGradient id="linear-gradient-6" x1="168.58" y1="33.38" x2="194.1" y2="33.38" xlink:href="#linear-gradient"/>
    <linearGradient id="linear-gradient-7" x1="200.75" y1="28.46" x2="209.44" y2="28.46" xlink:href="#linear-gradient"/>
    <linearGradient id="linear-gradient-8" x1="55.18" y1="66.18" x2="60.37" y2="66.18" xlink:href="#linear-gradient"/>
    <linearGradient id="linear-gradient-9" x1="60.88" y1="66.18" x2="66.06" y2="66.18" xlink:href="#linear-gradient"/>
    <linearGradient id="linear-gradient-10" x1="66.99" y1="66.16" x2="71.4" y2="66.16" xlink:href="#linear-gradient"/>
    <linearGradient id="linear-gradient-11" x1="74.56" y1="66.14" x2="80.2" y2="66.14" xlink:href="#linear-gradient"/>
    <linearGradient id="linear-gradient-12" x1="80.91" y1="66.74" x2="85.47" y2="66.74" xlink:href="#linear-gradient"/>
    <linearGradient id="linear-gradient-13" x1="86.46" y1="66.74" x2="90.61" y2="66.74" xlink:href="#linear-gradient"/>
    <linearGradient id="linear-gradient-14" x1="91.53" y1="65.93" x2="96.24" y2="65.93" xlink:href="#linear-gradient"/>
    <linearGradient id="linear-gradient-15" x1="97.42" y1="65.96" x2="102.4" y2="65.96" xlink:href="#linear-gradient"/>
    <linearGradient id="linear-gradient-16" x1="103.09" y1="66.74" x2="108.29" y2="66.74" xlink:href="#linear-gradient"/>
    <linearGradient id="linear-gradient-17" x1="108.98" y1="66.74" x2="113.54" y2="66.74" xlink:href="#linear-gradient"/>
    <linearGradient id="linear-gradient-18" x1="114.67" y1="66.7" x2="118.07" y2="66.7" xlink:href="#linear-gradient"/>
    <linearGradient id="linear-gradient-19" x1="118.39" y1="65.96" x2="123.33" y2="65.96" xlink:href="#linear-gradient"/>
    <linearGradient id="linear-gradient-20" x1="126.68" y1="66.15" x2="131.92" y2="66.15" xlink:href="#linear-gradient"/>
    <linearGradient id="linear-gradient-21" x1="132.44" y1="66.74" x2="137.01" y2="66.74" xlink:href="#linear-gradient"/>
    <linearGradient id="linear-gradient-22" x1="138.16" y1="65.96" x2="143.14" y2="65.96" xlink:href="#linear-gradient"/>
    <linearGradient id="linear-gradient-23" x1="143.6" y1="68.3" x2="145.41" y2="68.3" xlink:href="#linear-gradient"/>
    <linearGradient id="linear-gradient-24" x1="147.9" y1="66.15" x2="153.76" y2="66.15" xlink:href="#linear-gradient"/>
    <linearGradient id="linear-gradient-25" x1="154.24" y1="66.74" x2="158.49" y2="66.74" xlink:href="#linear-gradient"/>
    <linearGradient id="linear-gradient-26" x1="159.05" y1="66.74" x2="163.9" y2="66.74" xlink:href="#linear-gradient"/>
    <linearGradient id="linear-gradient-27" x1="164.82" y1="65.93" x2="169.52" y2="65.93" xlink:href="#linear-gradient"/>
    <linearGradient id="linear-gradient-28" x1="172.34" y1="66.18" x2="177.53" y2="66.18" xlink:href="#linear-gradient"/>
    <linearGradient id="linear-gradient-29" x1="177.74" y1="66.74" x2="182.31" y2="66.74" xlink:href="#linear-gradient"/>
    <linearGradient id="linear-gradient-30" x1="183.43" y1="66.7" x2="190.84" y2="66.7" xlink:href="#linear-gradient"/>
    <linearGradient id="linear-gradient-31" x1="191.94" y1="65.73" x2="193.67" y2="65.73" xlink:href="#linear-gradient"/>
    <linearGradient id="linear-gradient-32" x1="194.52" y1="66.74" x2="199.08" y2="66.74" xlink:href="#linear-gradient"/>
    <linearGradient id="linear-gradient-33" x1="200.21" y1="66.7" x2="204.93" y2="66.7" xlink:href="#linear-gradient"/>
    <linearGradient id="linear-gradient-34" x1="205.85" y1="67.6" x2="210.62" y2="67.6" xlink:href="#linear-gradient"/>
  </defs>
  <g id="Layer_1-2" data-name="Layer 1">
    <path d="m27.48,0c1.52.29,3.08.46,4.56.9,9.49,2.8,15.45,9.07,17.99,18.6.58,2.18.79,4.38.77,6.65-.07,7.92-.02,15.84-.03,23.75,0,3.41-.49,6.73-1.75,9.93-1.97,5.01-5.19,9.02-9.67,11.98-5,3.3-10.52,4.67-16.49,4.07-6.05-.61-11.23-3.13-15.5-7.44-3.51-3.54-5.8-7.79-6.76-12.7-.36-1.83-.53-3.73-.54-5.59-.06-8.41-.1-16.83,0-25.24.06-5.24,1.68-10.05,4.75-14.32C8.83,5.02,14.25,1.63,21,.36,21.77.22,22.55.12,23.33,0c1.39,0,2.77,0,4.16,0Zm-5.24,58.55h6.26v-4.68h-6.25v-6.37h6.29c0-1.21-.03-2.35.01-3.48.02-.58-.15-.87-.69-1.1-6.91-3.04-13.8-6.12-20.7-9.18-.23-.1-.47-.18-.75-.29,0,5.89-.04,11.68.02,17.47.03,3.24.83,6.31,2.48,9.12,3.11,5.28,7.7,8.43,13.75,9.41,1.94.31,3.88.31,5.84-.09v-4.41h-6.25v-6.39Zm17.41-27.8c1.6-1.27,3.09-2.45,4.55-3.64.14-.11.19-.39.19-.59.12-5.42-1.42-10.26-5.25-14.19-5.15-5.3-11.44-7.14-18.56-5.3-8.64,2.23-14.22,9.78-14.18,18.72,0,.26.07.68.24.76,1.46.7,2.95,1.34,4.66,2.09,0-1.86-.17-3.58.03-5.26,1.03-8.73,10.35-14.41,18.64-11.52,5.71,1.99,9.82,7.46,9.7,13.76-.03,1.67,0,3.34,0,5.17Zm-6.37-.7c0-1.53,0-3.07,0-4.6,0-2.56-.98-4.66-2.98-6.25-2.5-1.99-5.29-2.33-8.14-1.03-2.9,1.32-4.51,3.69-4.63,6.94-.07,1.85,0,3.71-.03,5.57,0,.52.16.77.64.98,3.82,1.67,7.66,3.3,11.42,5.1,1.28.61,2.17.61,3.15-.42.37-.39.59-.69.58-1.24-.04-1.68-.01-3.36-.01-5.05Zm11.09,5.11c-.24.18-.4.29-.55.41-2.8,2.24-5.59,4.49-8.41,6.71-.39.31-.54.62-.53,1.11.02,7.64.01,15.29.01,22.93,0,.21.02.42.04.7.31-.18.54-.31.76-.46,5.39-3.66,8.41-8.73,8.63-15.25.19-5.34.04-10.68.04-16.17Z" style="fill: url(#linear-gradient);"/>
    <g>
      <path d="m69.92,40.71c2.01,0,3.44-.35,4.29-1.05.85-.7,1.28-1.54,1.28-2.53,0-.91-.33-1.64-.99-2.19-.66-.55-1.66-1.03-2.98-1.45l-2.9-.91c-1.59-.49-3.03-1.03-4.32-1.62-1.29-.59-2.39-1.29-3.3-2.1-.91-.81-1.62-1.78-2.13-2.9-.51-1.12-.77-2.47-.77-4.06,0-3.18,1.2-5.7,3.61-7.56,2.41-1.86,5.75-2.78,10.03-2.78,1.63,0,3.13.11,4.52.34,1.38.23,2.57.58,3.55,1.05.99.47,1.76,1.05,2.33,1.73.57.68.85,1.48.85,2.39s-.22,1.64-.65,2.3c-.44.66-.94,1.22-1.51,1.68-.87-.61-2.03-1.12-3.47-1.53-1.44-.42-3.01-.63-4.72-.63-1.82,0-3.16.28-4.04.85-.87.57-1.31,1.29-1.31,2.16,0,.76.28,1.34.85,1.73s1.46.81,2.67,1.22l3.07,1.02c1.78.61,3.34,1.26,4.69,1.96,1.34.7,2.47,1.5,3.38,2.39.91.89,1.59,1.91,2.05,3.07.45,1.16.68,2.47.68,3.95,0,1.59-.31,3.04-.94,4.35s-1.55,2.43-2.79,3.38c-1.23.95-2.75,1.69-4.55,2.22-1.8.53-3.88.8-6.22.8-1.74,0-3.35-.14-4.83-.43s-2.76-.69-3.84-1.22c-1.08-.53-1.93-1.18-2.56-1.96-.63-.78-.94-1.66-.94-2.64s.29-1.88.88-2.56c.59-.68,1.24-1.23,1.96-1.65,1.02.83,2.3,1.57,3.84,2.22,1.54.64,3.27.97,5.2.97Z" style="fill: url(#linear-gradient-2);"/>
      <path d="m89.58,11.84c0-1.29.45-2.39,1.34-3.3.89-.91,2.05-1.36,3.5-1.36s2.6.45,3.5,1.36c.89.91,1.33,2.01,1.33,3.3s-.45,2.44-1.33,3.35c-.89.91-2.06,1.36-3.5,1.36s-2.61-.45-3.5-1.36c-.89-.91-1.34-2.03-1.34-3.35Zm9.15,35.12c-.38.11-.91.22-1.59.31-.68.09-1.44.14-2.27.14-1.71,0-2.93-.28-3.67-.82-.74-.55-1.11-1.62-1.11-3.21v-23.36c.38-.11.91-.23,1.59-.34.68-.11,1.44-.17,2.27-.17,1.71,0,2.93.28,3.67.85.74.57,1.11,1.65,1.11,3.24v23.36Z" style="fill: url(#linear-gradient-3);"/>
      <path d="m122.55,44.8c-.76.34-1.61.62-2.56.82-.95.21-2.03.31-3.24.31-1.71,0-3.32-.24-4.86-.71-1.53-.47-2.87-1.24-4.01-2.3-1.14-1.06-2.05-2.44-2.73-4.15-.68-1.7-1.02-3.79-1.02-6.25,0-2.23.34-4.21,1.02-5.91.68-1.71,1.66-3.13,2.93-4.29,1.27-1.16,2.79-2.03,4.55-2.61,1.76-.59,3.72-.88,5.88-.88s4.06.28,5.83.82c1.76.55,3.13,1.15,4.12,1.79.72.49,1.29,1.05,1.71,1.68.42.62.62,1.41.62,2.36v21.43c0,1.97-.36,3.67-1.08,5.11-.72,1.44-1.71,2.62-2.98,3.55-1.27.93-2.76,1.62-4.46,2.07s-3.54.68-5.51.68-3.82-.17-5.31-.51c-1.5-.34-2.68-.78-3.55-1.31-1.29-.91-1.93-2.12-1.93-3.64,0-.8.17-1.53.51-2.19.34-.66.72-1.15,1.14-1.45,1.06.61,2.28,1.13,3.67,1.56,1.38.44,2.85.65,4.4.65,2.12,0,3.8-.37,5.03-1.11,1.23-.74,1.85-1.96,1.85-3.67v-1.88Zm-4.26-5.4c.91,0,1.7-.11,2.36-.34.66-.23,1.26-.53,1.79-.91v-11.65c-.46-.19-.96-.38-1.51-.57-.55-.19-1.24-.28-2.07-.28-1.82,0-3.29.56-4.4,1.68-1.12,1.12-1.68,2.87-1.68,5.26,0,1.29.14,2.37.43,3.24.28.87.67,1.57,1.17,2.1.49.53,1.07.91,1.73,1.14.66.23,1.39.34,2.19.34Z" style="fill: url(#linear-gradient-4);"/>
      <path d="m153.69,26.62c-.8-.64-1.86-.97-3.18-.97-.91,0-1.74.11-2.5.34-.76.23-1.46.51-2.1.85v20.12c-.38.11-.91.22-1.59.31-.68.09-1.44.14-2.27.14-1.71,0-2.94-.28-3.69-.82-.76-.55-1.14-1.62-1.14-3.21v-17.56c0-.98.21-1.78.62-2.39.42-.61,1-1.17,1.76-1.71,1.21-.87,2.78-1.57,4.69-2.1,1.91-.53,4.03-.8,6.34-.8,4.13,0,7.32.91,9.58,2.73,2.25,1.82,3.38,4.41,3.38,7.79v17.62c-.42.11-.97.22-1.65.31-.68.09-1.44.14-2.27.14-1.71,0-2.93-.28-3.67-.82-.74-.55-1.11-1.62-1.11-3.21v-13.81c0-1.33-.4-2.31-1.19-2.96Z" style="fill: url(#linear-gradient-5);"/>
      <path d="m181.03,18.83c1.97,0,3.76.2,5.37.6s2.98,1.01,4.12,1.85c1.14.83,2.02,1.9,2.64,3.18.62,1.29.94,2.8.94,4.55v12.84c0,.99-.26,1.77-.77,2.36-.51.59-1.13,1.09-1.85,1.51-1.17.72-2.61,1.27-4.32,1.65-1.71.38-3.64.57-5.8.57-3.9,0-7.01-.75-9.32-2.24-2.31-1.5-3.47-3.78-3.47-6.85,0-2.61.78-4.6,2.33-5.97,1.55-1.36,3.94-2.22,7.16-2.56l7.56-.8v-.63c0-1.21-.49-2.1-1.48-2.67-.99-.57-2.41-.85-4.26-.85-1.44,0-2.85.17-4.23.51-1.38.34-2.62.74-3.72,1.19-.46-.3-.84-.77-1.17-1.39-.32-.62-.48-1.3-.48-2.02,0-1.67.87-2.86,2.61-3.58,1.1-.42,2.38-.73,3.84-.94,1.46-.21,2.89-.31,4.29-.31Zm.34,22.68c.83,0,1.66-.09,2.47-.26.81-.17,1.43-.39,1.85-.65v-5.23l-4.66.4c-1.21.11-2.19.39-2.93.82-.74.44-1.11,1.09-1.11,1.96s.34,1.63,1.02,2.16c.68.53,1.8.8,3.35.8Z" style="fill: url(#linear-gradient-6);"/>
      <path d="m205.52,47.42c-1.71,0-2.93-.28-3.67-.82-.74-.55-1.11-1.62-1.11-3.21V10.02c.38-.11.92-.23,1.62-.34.7-.11,1.47-.17,2.3-.17,1.67,0,2.88.28,3.64.85s1.14,1.65,1.14,3.24v33.36c-.42.11-.97.22-1.65.31-.68.09-1.44.14-2.27.14Z" style="fill: url(#linear-gradient-7);"/>
    </g>
    <g>
      <path d="m58.56,64.48v4.51c-.07.02-.18.04-.31.05-.14.02-.28.02-.43.02-.32,0-.54-.05-.67-.15-.13-.1-.19-.28-.19-.55v-3.89h-1.6c-.04-.06-.08-.14-.12-.24-.04-.1-.06-.21-.06-.33,0-.21.05-.37.15-.47s.24-.15.42-.15h4.44c.05.06.09.14.12.24.03.1.05.21.05.33,0,.21-.05.36-.15.46-.1.1-.24.15-.42.15h-1.24Z" style="fill: url(#linear-gradient-8);"/>
      <path d="m64.25,64.48v4.51c-.07.02-.18.04-.31.05-.14.02-.28.02-.43.02-.32,0-.54-.05-.67-.15-.13-.1-.19-.28-.19-.55v-3.89h-1.6c-.04-.06-.08-.14-.12-.24-.04-.1-.06-.21-.06-.33,0-.21.05-.37.15-.47s.24-.15.42-.15h4.44c.05.06.09.14.12.24.03.1.05.21.05.33,0,.21-.05.36-.15.46-.1.1-.24.15-.42.15h-1.24Z" style="fill: url(#linear-gradient-9);"/>
      <path d="m67.22,68.81c-.15-.14-.23-.33-.23-.57v-4.16c0-.24.08-.43.23-.57.15-.14.36-.21.62-.21h3.37c.04.06.08.14.11.24.03.09.05.2.05.32,0,.21-.05.36-.15.46-.1.1-.24.15-.41.15h-2.26v1.05h2.36c.04.06.08.14.11.24.03.09.05.2.05.32,0,.21-.05.36-.14.46s-.23.15-.41.15h-1.97v1.18h2.69c.04.06.08.14.11.24.03.1.05.21.05.33,0,.21-.05.36-.15.45-.1.09-.23.14-.4.14h-3.02c-.26,0-.46-.07-.62-.21Z" style="fill: url(#linear-gradient-10);"/>
      <path d="m80.2,66.13c0,.5-.08.94-.24,1.32-.16.38-.39.69-.69.94-.29.25-.65.44-1.07.56s-.88.19-1.39.19c-.12,0-.25,0-.39,0-.15,0-.29-.02-.45-.03s-.31-.04-.46-.07c-.16-.03-.3-.06-.43-.11-.35-.12-.53-.33-.53-.64v-4.48c0-.13.04-.22.11-.29.07-.07.17-.13.31-.17.28-.08.57-.13.88-.16.31-.03.6-.04.85-.04.52,0,1,.06,1.42.18.43.12.79.3,1.1.55.3.25.54.56.71.93.17.37.25.81.25,1.32Zm-1.65.02c0-.61-.16-1.06-.48-1.36s-.74-.45-1.26-.45c-.12,0-.24,0-.35,0-.11,0-.22.02-.33.04v3.5c.09.02.19.03.32.04.12,0,.25.01.36.01.53,0,.95-.15,1.26-.45.31-.3.47-.75.47-1.35Z" style="fill: url(#linear-gradient-11);"/>
      <path d="m83.13,64.33c.35,0,.67.03.96.1s.53.17.74.31c.2.14.36.31.47.53.11.21.17.46.17.75v2.13c0,.16-.05.29-.14.39s-.2.18-.33.25c-.21.12-.47.21-.77.27-.3.06-.65.09-1.04.09-.7,0-1.25-.12-1.67-.37-.41-.25-.62-.63-.62-1.13,0-.43.14-.76.42-.99.28-.23.7-.37,1.28-.42l1.35-.13v-.1c0-.2-.09-.35-.26-.44-.18-.09-.43-.14-.76-.14-.26,0-.51.03-.76.08-.25.06-.47.12-.67.2-.08-.05-.15-.13-.21-.23-.06-.1-.09-.21-.09-.33,0-.28.16-.47.47-.59.2-.07.43-.12.69-.16s.52-.05.77-.05Zm.06,3.75c.15,0,.3-.01.44-.04s.26-.06.33-.11v-.87l-.83.07c-.22.02-.39.06-.52.14-.13.07-.2.18-.2.32s.06.27.18.36.32.13.6.13Z" style="fill: url(#linear-gradient-12);"/>
      <path d="m90.61,67.67c0,.46-.19.83-.56,1.09-.37.26-.92.39-1.65.39-.29,0-.54-.02-.78-.06-.23-.04-.44-.09-.6-.17-.17-.08-.3-.17-.4-.28-.09-.11-.14-.24-.14-.4,0-.14.03-.26.09-.35.06-.1.14-.18.23-.24.2.11.42.2.67.28.25.08.54.12.88.12.48,0,.72-.13.72-.38,0-.11-.04-.19-.13-.24-.08-.06-.23-.11-.43-.15l-.41-.08c-.56-.11-.97-.27-1.24-.49-.27-.22-.41-.53-.41-.94,0-.45.2-.8.58-1.06.39-.26.91-.39,1.57-.39.24,0,.47.02.69.05.22.03.4.09.56.16.16.07.28.16.37.26s.14.22.14.36c0,.13-.03.24-.08.33-.05.1-.12.18-.21.24-.05-.03-.13-.07-.24-.1s-.22-.07-.34-.1c-.12-.03-.25-.06-.39-.08-.14-.02-.26-.03-.38-.03-.24,0-.42.03-.55.09-.13.06-.2.15-.2.27,0,.09.04.16.11.21.07.05.21.1.41.14l.39.08c.62.13,1.06.31,1.32.55s.4.55.4.92Z" style="fill: url(#linear-gradient-13);"/>
      <path d="m92.8,69.04c-.12.02-.26.02-.41.02-.3,0-.53-.05-.66-.14-.14-.09-.2-.27-.2-.53v-5.52c.07-.02.17-.04.29-.06s.26-.03.41-.03c.31,0,.52.05.66.14.13.09.2.27.2.54v1.08c.14-.06.3-.11.48-.16.18-.04.38-.06.58-.06.65,0,1.16.15,1.53.46s.55.76.55,1.37v2.83c-.07.02-.16.04-.28.05s-.26.02-.41.02c-.3,0-.53-.05-.66-.14-.14-.09-.2-.27-.2-.53v-2.16c0-.28-.08-.48-.23-.6s-.35-.18-.58-.18c-.16,0-.3.02-.43.06s-.25.09-.36.15v3.32c-.07.02-.16.04-.29.05Z" style="fill: url(#linear-gradient-14);"/>
      <path d="m100.02,64.33c.33,0,.64.05.94.15.29.1.54.25.76.45.21.2.38.45.5.75.12.3.18.65.18,1.04s-.07.74-.19,1.04c-.13.3-.31.55-.54.76-.23.2-.52.36-.84.46-.33.1-.7.16-1.1.16-.43,0-.79-.05-1.1-.14-.3-.09-.56-.21-.76-.34-.29-.18-.44-.42-.44-.72v-5.07c.07-.02.17-.04.29-.06s.26-.03.41-.03c.31,0,.52.05.66.14.13.09.2.27.2.54v1.07c.14-.06.29-.1.47-.15.18-.04.37-.06.58-.06Zm-.28,1.13c-.16,0-.3.02-.42.06-.13.04-.24.09-.35.16v2.15c.08.05.18.09.31.12s.26.05.43.05c.34,0,.61-.11.81-.32.2-.21.3-.53.3-.96s-.1-.76-.29-.96c-.19-.2-.45-.3-.78-.3Z" style="fill: url(#linear-gradient-15);"/>
      <path d="m108.29,66.73c0,.37-.06.7-.18,1s-.3.55-.52.76c-.23.21-.5.37-.82.48-.32.11-.67.17-1.07.17s-.75-.06-1.07-.16c-.32-.11-.6-.27-.82-.48-.23-.21-.4-.46-.52-.76-.12-.3-.18-.64-.18-1.01s.06-.69.19-.99c.12-.3.3-.55.53-.76.23-.21.5-.37.82-.48.32-.11.68-.17,1.06-.17s.74.06,1.06.17.59.27.82.48c.23.21.4.46.53.76.12.29.19.62.19.99Zm-2.59-1.27c-.32,0-.57.11-.74.33-.18.22-.26.53-.26.94s.09.74.26.96c.17.22.42.32.75.32s.58-.11.75-.33.26-.54.26-.95-.09-.71-.26-.94c-.18-.22-.42-.33-.74-.33Z" style="fill: url(#linear-gradient-16);"/>
      <path d="m111.2,64.33c.35,0,.67.03.96.1s.53.17.74.31c.2.14.36.31.47.53.11.21.17.46.17.75v2.13c0,.16-.05.29-.14.39s-.2.18-.33.25c-.21.12-.47.21-.77.27-.3.06-.65.09-1.04.09-.7,0-1.25-.12-1.67-.37-.41-.25-.62-.63-.62-1.13,0-.43.14-.76.42-.99.28-.23.7-.37,1.28-.42l1.35-.13v-.1c0-.2-.09-.35-.26-.44-.18-.09-.43-.14-.76-.14-.26,0-.51.03-.76.08-.25.06-.47.12-.67.2-.08-.05-.15-.13-.21-.23-.06-.1-.09-.21-.09-.33,0-.28.16-.47.47-.59.2-.07.43-.12.69-.16s.52-.05.77-.05Zm.06,3.75c.15,0,.3-.01.44-.04s.26-.06.33-.11v-.87l-.83.07c-.22.02-.39.06-.52.14-.13.07-.2.18-.2.32s.06.27.18.36.32.13.6.13Z" style="fill: url(#linear-gradient-17);"/>
      <path d="m116.23,68.99c-.07.02-.16.04-.29.05-.12.02-.26.02-.41.02-.3,0-.53-.05-.66-.14-.14-.09-.2-.27-.2-.53v-2.87c0-.18.05-.33.14-.45.09-.12.23-.23.4-.33.22-.13.49-.22.81-.3.31-.07.65-.11.99-.11.71,0,1.06.22,1.06.66,0,.11-.02.2-.05.29-.03.09-.07.16-.11.23-.16-.03-.35-.05-.57-.05-.2,0-.39.02-.59.07s-.37.1-.52.18v3.27Z" style="fill: url(#linear-gradient-18);"/>
      <path d="m120.96,64.33c.16,0,.3.01.44.03.14.02.27.05.38.09v-1.58c.07-.02.17-.04.29-.06s.26-.03.41-.03c.31,0,.52.05.66.14.13.09.2.27.2.54v4.58c0,.15-.03.28-.1.38-.07.1-.18.2-.33.29-.19.11-.43.2-.73.29s-.64.13-1.03.13c-.85,0-1.53-.2-2.02-.6-.49-.4-.74-1-.74-1.79,0-.41.07-.77.2-1.07s.31-.55.54-.75.5-.35.81-.45.65-.15,1.01-.15Zm.83,1.27c-.09-.04-.18-.07-.29-.1-.11-.03-.22-.04-.33-.04-.37,0-.66.1-.87.31s-.33.54-.33.99.1.75.31.95c.21.2.49.3.86.3.14,0,.27-.01.38-.04.11-.03.2-.06.27-.1v-2.26Z" style="fill: url(#linear-gradient-19);"/>
      <path d="m127.96,69.05c-.14.02-.28.03-.43.03-.32,0-.54-.05-.67-.16-.12-.1-.19-.29-.19-.55v-5.09c.07-.01.18-.03.32-.05.14-.02.28-.03.41-.03.31,0,.53.05.66.14.14.09.2.28.2.56v1.69l2.25-2.35c.41,0,.7.07.88.21.18.14.26.31.26.51,0,.15-.04.29-.12.42-.08.13-.21.27-.38.44l-1.44,1.34c.47.47.89.89,1.27,1.26s.69.67.93.89c0,.24-.1.44-.27.57-.17.14-.38.21-.61.21-.25,0-.46-.06-.62-.17-.16-.12-.31-.25-.46-.41l-1.69-1.77v2.25c-.07.02-.18.04-.31.06Z" style="fill: url(#linear-gradient-20);"/>
      <path d="m134.67,64.33c.35,0,.67.03.96.1s.53.17.74.31c.2.14.36.31.47.53.11.21.17.46.17.75v2.13c0,.16-.05.29-.14.39s-.2.18-.33.25c-.21.12-.47.21-.77.27-.3.06-.65.09-1.04.09-.7,0-1.25-.12-1.67-.37-.41-.25-.62-.63-.62-1.13,0-.43.14-.76.42-.99.28-.23.7-.37,1.28-.42l1.35-.13v-.1c0-.2-.09-.35-.26-.44-.18-.09-.43-.14-.76-.14-.26,0-.51.03-.76.08-.25.06-.47.12-.67.2-.08-.05-.15-.13-.21-.23-.06-.1-.09-.21-.09-.33,0-.28.16-.47.47-.59.2-.07.43-.12.69-.16s.52-.05.77-.05Zm.06,3.75c.15,0,.3-.01.44-.04s.26-.06.33-.11v-.87l-.83.07c-.22.02-.39.06-.52.14-.13.07-.2.18-.2.32s.06.27.18.36.32.13.6.13Z" style="fill: url(#linear-gradient-21);"/>
      <path d="m140.76,64.33c.33,0,.64.05.94.15.29.1.54.25.76.45.21.2.38.45.5.75.12.3.18.65.18,1.04s-.07.74-.19,1.04c-.13.3-.31.55-.54.76-.23.2-.52.36-.84.46-.33.1-.7.16-1.1.16-.43,0-.79-.05-1.1-.14-.3-.09-.56-.21-.76-.34-.29-.18-.44-.42-.44-.72v-5.07c.07-.02.17-.04.29-.06s.26-.03.41-.03c.31,0,.52.05.66.14.13.09.2.27.2.54v1.07c.14-.06.29-.1.47-.15.18-.04.37-.06.58-.06Zm-.28,1.13c-.16,0-.3.02-.42.06-.13.04-.24.09-.35.16v2.15c.08.05.18.09.31.12s.26.05.43.05c.34,0,.61-.11.81-.32.2-.21.3-.53.3-.96s-.1-.76-.29-.96c-.19-.2-.45-.3-.78-.3Z" style="fill: url(#linear-gradient-22);"/>
      <path d="m143.6,68.3c0-.24.08-.44.24-.6.16-.16.38-.24.67-.24s.5.08.66.24c.16.16.24.36.24.6s-.08.44-.24.6-.38.24-.66.24-.51-.08-.67-.24-.24-.36-.24-.6Z" style="fill: url(#linear-gradient-23);"/>
      <path d="m151.79,67.75h-1.99c-.08.23-.14.45-.21.67-.06.22-.12.41-.17.58-.09.02-.18.05-.28.07-.09.02-.21.03-.34.03-.3,0-.52-.05-.68-.15s-.23-.24-.23-.42c0-.09.01-.17.04-.25.03-.08.06-.18.09-.28.05-.17.12-.38.2-.63.09-.25.18-.52.29-.81.11-.29.21-.59.33-.9.12-.31.23-.6.33-.88.11-.28.21-.53.29-.77.09-.23.16-.42.22-.56.1-.06.26-.11.47-.16.21-.05.43-.08.64-.08.3,0,.57.04.81.12.23.08.38.21.45.39.13.33.27.72.42,1.16.15.44.3.89.45,1.35s.3.92.44,1.37.27.86.38,1.21c-.07.08-.18.15-.33.2-.15.05-.32.08-.52.08-.29,0-.5-.05-.62-.14-.12-.09-.21-.24-.26-.44l-.24-.76Zm-.99-3.22c-.1.28-.21.6-.35.96-.14.36-.27.73-.39,1.11h1.45c-.12-.4-.23-.77-.35-1.13-.12-.36-.22-.67-.3-.94h-.06Z" style="fill: url(#linear-gradient-24);"/>
      <path d="m157.14,65.47c-.37,0-.68.11-.94.32-.26.22-.39.53-.39.96s.12.73.37.94c.25.21.56.31.94.31.22,0,.41-.03.57-.08.17-.05.31-.11.42-.16.12.08.21.17.27.26s.1.2.1.33c0,.24-.14.43-.41.57-.27.14-.65.22-1.13.22-.41,0-.78-.05-1.11-.15-.34-.1-.62-.25-.86-.45s-.42-.45-.55-.75c-.13-.3-.19-.64-.19-1.04s.07-.76.21-1.06c.14-.3.33-.55.58-.75.24-.2.53-.35.85-.45.33-.1.67-.15,1.03-.15.47,0,.84.08,1.1.24s.4.35.4.59c0,.11-.03.22-.09.31s-.13.18-.21.24c-.12-.06-.27-.12-.43-.17s-.35-.08-.55-.08Z" style="fill: url(#linear-gradient-25);"/>
      <path d="m160.6,67.33c.09.26.26.45.5.56.24.11.51.17.82.17.29,0,.55-.04.8-.11.25-.07.45-.15.61-.24.1.06.19.14.25.24.07.1.1.21.1.33,0,.14-.05.27-.14.38-.09.11-.23.2-.39.27-.17.07-.36.13-.59.16-.23.03-.48.05-.75.05-.4,0-.77-.05-1.11-.16s-.63-.26-.87-.46c-.24-.2-.44-.46-.58-.77-.14-.31-.21-.67-.21-1.08s.07-.75.21-1.04c.14-.29.33-.54.56-.73.23-.19.5-.34.8-.43.3-.09.61-.14.93-.14.35,0,.66.05.95.15s.54.23.74.41c.21.18.37.39.48.63s.17.51.17.8c0,.2-.06.35-.17.45-.12.1-.28.17-.49.2l-2.64.37Zm.97-1.94c-.29,0-.53.08-.73.25-.19.17-.31.41-.34.72l1.94-.29c-.01-.16-.09-.32-.23-.46-.14-.14-.36-.22-.64-.22Z" style="fill: url(#linear-gradient-26);"/>
      <path d="m166.09,69.04c-.12.02-.26.02-.41.02-.3,0-.53-.05-.66-.14-.14-.09-.2-.27-.2-.53v-5.52c.07-.02.17-.04.29-.06s.26-.03.41-.03c.31,0,.52.05.66.14.13.09.2.27.2.54v1.08c.14-.06.3-.11.48-.16.18-.04.38-.06.58-.06.65,0,1.16.15,1.53.46s.55.76.55,1.37v2.83c-.07.02-.16.04-.28.05s-.26.02-.41.02c-.3,0-.53-.05-.66-.14-.14-.09-.2-.27-.2-.53v-2.16c0-.28-.08-.48-.23-.6s-.35-.18-.58-.18c-.16,0-.3.02-.43.06s-.25.09-.36.15v3.32c-.07.02-.16.04-.29.05Z" style="fill: url(#linear-gradient-27);"/>
      <path d="m175.72,64.48v4.51c-.07.02-.18.04-.31.05-.14.02-.28.02-.43.02-.32,0-.54-.05-.67-.15-.13-.1-.19-.28-.19-.55v-3.89h-1.6c-.04-.06-.08-.14-.12-.24-.04-.1-.06-.21-.06-.33,0-.21.05-.37.15-.47s.24-.15.42-.15h4.44c.05.06.09.14.12.24.03.1.05.21.05.33,0,.21-.05.36-.15.46-.1.1-.24.15-.42.15h-1.24Z" style="fill: url(#linear-gradient-28);"/>
      <path d="m179.97,64.33c.35,0,.67.03.96.1s.53.17.74.31c.2.14.36.31.47.53.11.21.17.46.17.75v2.13c0,.16-.05.29-.14.39s-.2.18-.33.25c-.21.12-.47.21-.77.27-.3.06-.65.09-1.04.09-.7,0-1.25-.12-1.67-.37-.41-.25-.62-.63-.62-1.13,0-.43.14-.76.42-.99.28-.23.7-.37,1.28-.42l1.35-.13v-.1c0-.2-.09-.35-.26-.44-.18-.09-.43-.14-.76-.14-.26,0-.51.03-.76.08-.25.06-.47.12-.67.2-.08-.05-.15-.13-.21-.23-.06-.1-.09-.21-.09-.33,0-.28.16-.47.47-.59.2-.07.43-.12.69-.16s.52-.05.77-.05Zm.06,3.75c.15,0,.3-.01.44-.04s.26-.06.33-.11v-.87l-.83.07c-.22.02-.39.06-.52.14-.13.07-.2.18-.2.32s.06.27.18.36.32.13.6.13Z" style="fill: url(#linear-gradient-29);"/>
      <path d="m190.84,68.99c-.08.02-.17.04-.29.05s-.26.02-.41.02c-.3,0-.52-.05-.66-.14-.13-.09-.2-.27-.2-.53v-2.33c0-.21-.06-.36-.18-.46-.12-.1-.29-.15-.5-.15-.14,0-.26.02-.38.07-.12.04-.23.1-.32.17,0,.03.01.06.01.09,0,.03,0,.06,0,.09v3.11c-.08.02-.17.04-.29.05s-.26.02-.41.02c-.3,0-.52-.05-.66-.14-.13-.09-.2-.27-.2-.53v-2.33c0-.21-.07-.36-.2-.46-.14-.1-.3-.15-.5-.15-.14,0-.27.02-.39.06-.12.04-.21.08-.29.12v3.35c-.07.02-.16.04-.29.05-.12.02-.26.02-.41.02-.3,0-.53-.05-.66-.14-.14-.09-.2-.27-.2-.53v-2.91c0-.16.04-.29.11-.4.07-.1.18-.19.31-.28.22-.14.5-.26.83-.35.33-.09.67-.13,1.03-.13.28,0,.55.04.81.11.25.07.49.18.7.33.2-.13.43-.23.69-.32.26-.08.56-.13.92-.13.26,0,.52.03.76.09.24.06.45.16.64.29.18.14.33.31.44.53.11.22.17.48.17.79v2.96Z" style="fill: url(#linear-gradient-30);"/>
      <path d="m191.94,63.17c0-.21.08-.4.24-.55.16-.15.37-.23.62-.23s.47.08.63.23c.16.15.24.33.24.55s-.08.4-.24.56c-.16.15-.37.23-.63.23s-.47-.08-.62-.23c-.16-.15-.24-.34-.24-.56Zm1.64,5.82c-.07.02-.16.04-.29.05s-.26.02-.41.02c-.31,0-.52-.05-.66-.14-.13-.09-.2-.27-.2-.53v-3.87c.07-.02.16-.04.29-.06s.26-.03.41-.03c.3,0,.52.05.66.14.13.09.2.27.2.54v3.87Z" style="fill: url(#linear-gradient-31);"/>
      <path d="m196.74,64.33c.35,0,.67.03.96.1s.53.17.74.31c.2.14.36.31.47.53.11.21.17.46.17.75v2.13c0,.16-.05.29-.14.39s-.2.18-.33.25c-.21.12-.47.21-.77.27-.3.06-.65.09-1.04.09-.7,0-1.25-.12-1.67-.37-.41-.25-.62-.63-.62-1.13,0-.43.14-.76.42-.99.28-.23.7-.37,1.28-.42l1.35-.13v-.1c0-.2-.09-.35-.26-.44-.18-.09-.43-.14-.76-.14-.26,0-.51.03-.76.08-.25.06-.47.12-.67.2-.08-.05-.15-.13-.21-.23-.06-.1-.09-.21-.09-.33,0-.28.16-.47.47-.59.2-.07.43-.12.69-.16s.52-.05.77-.05Zm.06,3.75c.15,0,.3-.01.44-.04s.26-.06.33-.11v-.87l-.83.07c-.22.02-.39.06-.52.14-.13.07-.2.18-.2.32s.06.27.18.36.32.13.6.13Z" style="fill: url(#linear-gradient-32);"/>
      <path d="m203.16,65.62c-.14-.11-.33-.16-.57-.16-.16,0-.31.02-.45.06s-.26.08-.38.14v3.33c-.07.02-.16.04-.29.05-.12.02-.26.02-.41.02-.3,0-.53-.05-.66-.14-.14-.09-.2-.27-.2-.53v-2.91c0-.16.04-.29.11-.4.07-.1.18-.19.31-.28.22-.14.5-.26.84-.35.34-.09.72-.13,1.13-.13.74,0,1.31.15,1.71.45.4.3.6.73.6,1.29v2.92c-.07.02-.17.04-.29.05s-.26.02-.41.02c-.31,0-.52-.05-.66-.14-.13-.09-.2-.27-.2-.53v-2.29c0-.22-.07-.38-.21-.49Z" style="fill: url(#linear-gradient-33);"/>
      <path d="m209.15,68.63c-.14.06-.29.1-.46.14-.17.03-.36.05-.58.05-.3,0-.59-.04-.87-.12s-.51-.21-.72-.38c-.2-.18-.37-.4-.49-.69-.12-.28-.18-.63-.18-1.04,0-.37.06-.7.18-.98s.3-.52.52-.71c.23-.19.5-.34.81-.43.31-.1.67-.15,1.05-.15s.73.05,1.04.14c.32.09.56.19.74.3.13.08.23.17.3.28.08.1.11.23.11.39v3.55c0,.33-.06.61-.19.85s-.31.43-.53.59c-.23.15-.49.27-.8.34-.3.08-.63.11-.99.11s-.68-.03-.95-.08c-.27-.06-.48-.13-.64-.22-.23-.15-.35-.35-.35-.6,0-.13.03-.25.09-.36.06-.11.13-.19.2-.24.19.1.41.19.66.26.25.07.51.11.79.11.38,0,.68-.06.9-.18.22-.12.33-.32.33-.61v-.31Zm-.76-.89c.16,0,.3-.02.42-.06.12-.04.22-.09.32-.15v-1.93c-.08-.03-.17-.06-.27-.09-.1-.03-.22-.05-.37-.05-.33,0-.59.09-.79.28-.2.19-.3.48-.3.87,0,.21.03.39.08.54.05.14.12.26.21.35.09.09.19.15.31.19.12.04.25.06.39.06Z" style="fill: url(#linear-gradient-34);"/>
    </g>
  </g>
</svg>